<svg id="圖層_1" data-name="圖層 1" xmlns="http://www.w3.org/2000/svg" viewBox="0 0 130.08 182.98"><defs><style>.cls-1{fill:#f66;}.cls-2{fill:#ffd34d;}.cls-3{fill:#f2ba49;}</style></defs><title>metal</title><polygon class="cls-1" points="101.78 89.9 101.78 176.06 69.31 143.6 36.85 176.06 36.85 89.9 101.78 89.9"/><circle class="cls-2" cx="104.06" cy="66.9" r="58.12" transform="translate(-33.38 127.11) rotate(-66.63)"/><path class="cls-3" d="M104.06,116.48A49.58,49.58,0,1,1,153.63,66.9,49.63,49.63,0,0,1,104.06,116.48Zm0-95.31A45.74,45.74,0,1,0,149.79,66.9,45.78,45.78,0,0,0,104.06,21.17Z" transform="translate(-34.75 -8.79)"/><polygon class="cls-3" points="69.31 26.01 76.52 48.2 99.85 48.2 80.98 61.91 88.19 84.09 69.31 70.38 50.44 84.09 57.65 61.91 38.78 48.2 62.1 48.2 69.31 26.01"/><path class="cls-2" d="M56.37,119.81a5.22,5.22,0,1,1-5.22-5.22A5.22,5.22,0,0,1,56.37,119.81Z" transform="translate(-34.75 -8.79)"/><path class="cls-3" d="M41.93,93a3.59,3.59,0,1,1-3.59-3.59A3.59,3.59,0,0,1,41.93,93Z" transform="translate(-34.75 -8.79)"/><polygon class="cls-2" points="64.19 174.56 58.77 174.56 58.77 169.15 55.77 169.15 55.77 174.56 50.36 174.56 50.36 177.56 55.77 177.56 55.77 182.98 58.77 182.98 58.77 177.56 64.19 177.56 64.19 174.56"/><path class="cls-3" d="M106.09,174a3.15,3.15,0,1,1-3.15-3.15A3.15,3.15,0,0,1,106.09,174Z" transform="translate(-34.75 -8.79)"/><circle class="cls-2" cx="14" cy="11.27" r="4.27"/><circle class="cls-2" cx="116.9" cy="3.5" r="3.5"/><polygon class="cls-3" points="130.09 17.7 126.48 17.7 126.48 14.09 124.49 14.09 124.49 17.7 120.89 17.7 120.89 19.69 124.49 19.69 124.49 23.29 126.48 23.29 126.48 19.69 130.09 19.69 130.09 17.7"/><path class="cls-3" d="M150.81,160.14a2.84,2.84,0,1,1-2.83-2.83A2.84,2.84,0,0,1,150.81,160.14Z" transform="translate(-34.75 -8.79)"/></svg>